Coordinates
version=1
nRows=8
nColumns=28
inDegrees=yes

Units are S.I. units (second, meters, Newtons, ...)
Angles are in degrees.

endheader
time	pelvis_tilt	pelvis_list	pelvis_rotation	pelvis_tx	pelvis_ty	pelvis_tz	hip_flexion_r	hip_adduction_r	hip_rotation_r	knee_angle_r	ankle_angle_r	subtalar_angle_r	mtp_angle_r	hip_flexion_l	hip_adduction_l	hip_rotation_l	knee_angle_l	socket_flexion	socket_adduction	socket_rotation	socket_tx	socket_ty	socket_tz	foot_flex	lumbar_extension	lumbar_bending	lumbar_rotation
      0.96666667	      2.46097649	     -4.83787103	     -2.95095764	      0.38478761	      1.01610044	      0.29731081	      5.62649848	     13.19168583	      7.85969639	    -21.72009281	      8.63540270	    -16.79819693	     19.85097827	     15.21368182	    -14.15101734	      0.51028499	    -48.91486773	     10.93782658	     11.01972805	     16.82283314	      0.10077867	      0.06540409	     -0.03324032	      2.33872079	    -10.61037723	      4.33733836	      9.91881100
      0.97083333	      2.41118406	     -4.76207792	     -3.23189851	      0.38920658	      1.01698023	      0.29780112	      5.23205514	     13.06330337	      8.00498706	    -21.45105532	      8.59788839	    -16.48537690	     19.93582072	     15.82437466	    -14.15927483	      0.58591695	    -48.76163877	     10.77667592	     11.06559954	     16.85862649	      0.10037907	      0.06537792	     -0.03378077	      2.34272382	    -10.59573018	      4.20086105	     10.16609535
      0.97500000	      2.35457157	     -4.69775604	     -3.51797220	      0.39359538	      1.01782241	      0.29829585	      4.85391495	     12.94639946	      8.14731600	    -21.19400064	      8.55681026	    -16.16105159	     20.02932577	     16.42553761	    -14.16423139	      0.65570547	    -48.58498242	     10.59598734	     11.09543382	     16.88674999	      0.09995734	      0.06523467	     -0.03414565	      2.34842532	    -10.57752121	      4.07757970	     10.42849317
      0.97916667	      2.28358216	     -4.63817091	     -3.80864898	      0.39798756	      1.01861508	      0.29876216	      4.48925132	     12.82793048	      8.29559100	    -20.93175158	      8.51257760	    -15.81576545	     20.13674143	     17.02254955	    -14.16993375	      0.72237629	    -48.38673369	     10.39773242	     11.11244015	     16.91326928	      0.09946621	      0.06500732	     -0.03449449	      2.35402222	    -10.54426500	      3.95180176	     10.71100318
      0.98333333	      2.22264246	     -4.57797860	     -4.10759979	      0.40236031	      1.01941356	      0.29926740	      4.13127123	     12.71037445	      8.41646081	    -20.69673930	      8.47342785	    -15.50543468	     20.23937570	     17.59538740	    -14.18538291	      0.78001386	    -48.17181968	     10.18369635	     11.11797529	     16.92370119	      0.09886774	      0.06479011	     -0.03488402	      2.35944054	    -10.51529107	      3.84042299	     10.96235826
      0.98750000	      2.14961140	     -4.52158957	     -4.39991496	      0.40670948	      1.02016888	      0.29976031	      3.77953931	     12.59907046	      8.56501872	    -20.44394912	      8.42647809	    -15.17057898	     20.35362602	     18.16588196	    -14.18035757	      0.84504095	    -47.93225162	      9.95193971	     11.10366535	     16.93558401	      0.09823874	      0.06445312	     -0.03507551	      2.36766918	    -10.47662322	      3.72854468	     11.23062955
      0.99166667	      2.07051879	     -4.47660294	     -4.69927584	      0.41106197	      1.02087376	      0.30018311	      3.44070400	     12.48663320	      8.69637885	    -20.20215327	      8.37824061	    -14.84910442	     20.47176519	     18.71392969	    -14.17744421	      0.89588426	    -47.67018616	      9.70025381	     11.07357293	     16.93144485	      0.09754663	      0.06395086	     -0.03516777	      2.37643877	    -10.43829679	      3.63407057	     11.49210585
      0.99583333	      2.06396954	     -4.46894048	     -5.00634484	      0.41520361	      1.02156753	      0.30054058	      3.15067838	     12.40509601	      8.65074496	    -20.18958544	      8.37662228	    -14.80973853	     20.48732159	     19.14916187	    -14.17348741	      0.94421735	    -47.37708615	      9.43236330	     10.99503936	     16.91883237	      0.09676215	      0.06313004	     -0.03501250	      2.41187687	    -10.53418343	      3.62818115	     11.52814125
